<?xml version="1.0" encoding="UTF-8"?>
<svg xmlns="http://www.w3.org/2000/svg"
     version="1.1"
     width="128"
     height="128">
  <style type="text/css">
    .outer {
      fill: #333
    }

    .inner {
      fill: #db4864
    }
  </style>
  <g transform="translate(0,-924.36218)">
    <path class="outer"
        d="M 64,8 C 40.18778,7.9999988 60.809488,10.87514 40.1875,22.78125 19.56551,34.687361 27.406112,15.378011 15.5,36 3.5938888,56.621987 16.406251,40.18778 16.40625,64 16.406249,87.812222 3.5938899,71.37801 15.5,92 27.406109,112.62199 19.565513,93.312639 40.1875,105.21875 60.809489,117.12486 40.187778,120 64,120 87.81222,120 67.190512,117.12486 87.8125,105.21875 108.43449,93.312639 100.59389,112.62199 112.5,92 c 11.90611,-20.621987 -0.90625,-4.18778 -0.90625,-28 0,-23.812222 12.81236,-7.37801 0.90625,-28 C 100.59389,15.378012 108.43449,34.687361 87.8125,22.78125 67.190511,10.875138 87.812222,8.0000012 64,8 z m 0,24 C 81.673112,32 96,46.326888 96,64 96,81.673112 81.673112,96 64,96 46.326888,96 32,81.673112 32,64 32,46.326888 46.326888,32 64,32 z"
        transform="translate(0,924.36218)"/>
    <path class="inner"
        d="m 64,40 c 17.666918,0 1.558846,2.7 10.392305,18 8.833459,15.3 19.225764,2.7 10.392305,18 C 75.951151,91.3 81.666918,76 64,76 46.333082,76 52.04885,91.3 43.21539,76 34.381931,60.7 44.774236,73.3 53.607695,58 62.441154,42.7 46.333082,40 64,40 z"
        transform="translate(0,924.36218)"/>
  </g>
</svg>
